<svg aria-hidden="true" style="position: absolute; width: 0; height: 0; overflow: hidden;" version="1.1" xmlns="http://www.w3.org/2000/svg" xmlns:xlink="http://www.w3.org/1999/xlink">
<defs>
<symbol id="icon-back-button" viewBox="0 0 32 32">
<path d="M16 32c8.822 0 16-7.178 16-16s-7.177-16-16-16-16 7.178-16 16c0 8.822 7.178 16 16 16zM16 2.19c7.615 0 13.809 6.195 13.809 13.81s-6.195 13.81-13.809 13.81c-7.615-0-13.809-6.195-13.809-13.81s6.195-13.809 13.809-13.809z"></path>
<path d="M13.851 22.853c0.198 0.198 0.472 0.321 0.774 0.321s0.576-0.122 0.774-0.321v0c0.198-0.198 0.321-0.472 0.321-0.774s-0.123-0.576-0.321-0.775l-4.208-4.208 12.186-0.001c0.605-0 1.095-0.49 1.095-1.095s-0.49-1.095-1.095-1.095c-0 0-0 0-0 0l-12.187 0.001 4.209-4.209c0.198-0.198 0.321-0.472 0.321-0.774 0-0.605-0.49-1.095-1.095-1.095-0.302 0-0.576 0.123-0.774 0.321l-6.079 6.078c-0.198 0.198-0.321 0.472-0.321 0.774 0 0 0 0 0 0v0c0 0.302 0.123 0.576 0.321 0.775l6.078 6.078z"></path>
</symbol>
<symbol id="icon-github" viewBox="0 0 32 32">
<path d="M15.998 0.333c-8.834 0-15.998 7.192-15.998 16.064 0 7.096 4.584 13.116 10.944 15.242 0.8 0.148 1.092-0.348 1.092-0.774 0-0.382-0.014-1.392-0.022-2.732-4.45 0.97-5.39-2.154-5.39-2.154-0.726-1.856-1.776-2.35-1.776-2.35-1.454-0.996 0.108-0.976 0.108-0.976 1.606 0.114 2.45 1.656 2.45 1.656 1.428 2.454 3.746 1.746 4.658 1.334 0.144-1.038 0.558-1.746 1.016-2.148-3.552-0.406-7.288-1.784-7.288-7.938 0-1.754 0.624-3.188 1.648-4.312-0.166-0.406-0.714-2.040 0.156-4.25 0 0 1.344-0.432 4.4 1.646 1.276-0.356 2.644-0.534 4.006-0.54 1.358 0.008 2.728 0.184 4.006 0.542 3.054-2.078 4.396-1.646 4.396-1.646 0.872 2.212 0.324 3.844 0.16 4.25 1.026 1.124 1.644 2.558 1.644 4.312 0 6.17-3.74 7.528-7.304 7.926 0.574 0.496 1.086 1.476 1.086 2.974 0 2.148-0.020 3.88-0.020 4.406 0 0.43 0.288 0.93 1.1 0.772 6.35-2.128 10.93-8.146 10.93-15.24 0-8.872-7.164-16.064-16.002-16.064z"></path>
</symbol>
</defs>
</svg>
